<svg xmlns="http://www.w3.org/2000/svg" xmlns:xlink="http://www.w3.org/1999/xlink" contentStyleType="text/css" height="714px" preserveAspectRatio="none" style="width:1063px;height:714px;background:#FFFFFF;" version="1.1" viewBox="0 0 1063 714" width="1063px" zoomAndPan="magnify"><defs/><g><!--class ?????--><g id="elem_&#1043;&#1086;&#1088;&#1086;&#1076;"><rect codeLine="2" fill="#F1F1F1" height="80.5938" id="&#1043;&#1086;&#1088;&#1086;&#1076;" rx="2.5" ry="2.5" style="stroke:#181818;stroke-width:0.5;" width="147.8096" x="341.97" y="7"/><ellipse cx="389.5071" cy="23" fill="#ADD1B2" rx="11" ry="11" style="stroke:#181818;stroke-width:1.0;"/><path d="M393.6165,29 L385.8977,29 L385.8977,16.6094 L393.6165,16.6094 L393.6165,18.7656 L388.3509,18.7656 L388.3509,21.4375 L393.1165,21.4375 L393.1165,23.5938 L388.3509,23.5938 L388.3509,26.8438 L393.6165,26.8438 L393.6165,29 Z " fill="#000000"/><text fill="#000000" font-family="sans-serif" font-size="14" lengthAdjust="spacing" textLength="44.2354" x="410.0071" y="27.8467">&#1043;&#1086;&#1088;&#1086;&#1076;</text><line style="stroke:#181818;stroke-width:0.5;" x1="342.97" x2="488.7796" y1="39" y2="39"/><ellipse cx="352.97" cy="52.6484" fill="#000000" rx="3" ry="3" style="stroke:#000000;stroke-width:1.0;"/><text fill="#000000" font-family="sans-serif" font-size="14" lengthAdjust="spacing" textLength="81.9082" x="361.97" y="55.9951">city_id : INT</text><text fill="#000000" font-family="sans-serif" font-size="14" lengthAdjust="spacing" textLength="121.8096" x="361.97" y="72.292">name : VARCHAR</text><line style="stroke:#181818;stroke-width:0.5;" x1="342.97" x2="488.7796" y1="79.5938" y2="79.5938"/></g><!--class ???????--><g id="elem_&#1052;&#1072;&#1075;&#1072;&#1079;&#1080;&#1085;"><rect codeLine="7" fill="#F1F1F1" height="96.8906" id="&#1052;&#1072;&#1075;&#1072;&#1079;&#1080;&#1085;" rx="2.5" ry="2.5" style="stroke:#181818;stroke-width:0.5;" width="147.8096" x="341.97" y="172.75"/><ellipse cx="381.0542" cy="188.75" fill="#ADD1B2" rx="11" ry="11" style="stroke:#181818;stroke-width:1.0;"/><path d="M385.1636,194.75 L377.4449,194.75 L377.4449,182.3594 L385.1636,182.3594 L385.1636,184.5156 L379.898,184.5156 L379.898,187.1875 L384.6636,187.1875 L384.6636,189.3438 L379.898,189.3438 L379.898,192.5938 L385.1636,192.5938 L385.1636,194.75 Z " fill="#000000"/><text fill="#000000" font-family="sans-serif" font-size="14" lengthAdjust="spacing" textLength="62.2891" x="400.4063" y="193.5967">&#1052;&#1072;&#1075;&#1072;&#1079;&#1080;&#1085;</text><line style="stroke:#181818;stroke-width:0.5;" x1="342.97" x2="488.7796" y1="204.75" y2="204.75"/><ellipse cx="352.97" cy="218.3984" fill="#000000" rx="3" ry="3" style="stroke:#000000;stroke-width:1.0;"/><text fill="#000000" font-family="sans-serif" font-size="14" lengthAdjust="spacing" textLength="92.2646" x="361.97" y="221.7451">store_id : INT</text><text fill="#000000" font-family="sans-serif" font-size="14" lengthAdjust="spacing" textLength="121.8096" x="361.97" y="238.042">name : VARCHAR</text><text fill="#000000" font-family="sans-serif" font-size="14" lengthAdjust="spacing" textLength="81.9082" x="361.97" y="254.3389">city_id : INT</text><line style="stroke:#181818;stroke-width:0.5;" x1="342.97" x2="488.7796" y1="261.6406" y2="261.6406"/></g><!--class ?????--><g id="elem_&#1047;&#1072;&#1082;&#1072;&#1079;"><rect codeLine="13" fill="#F1F1F1" height="145.7813" id="&#1047;&#1072;&#1082;&#1072;&#1079;" rx="2.5" ry="2.5" style="stroke:#181818;stroke-width:0.5;" width="188.8184" x="236.47" y="354.78"/><ellipse cx="305.6121" cy="370.78" fill="#ADD1B2" rx="11" ry="11" style="stroke:#181818;stroke-width:1.0;"/><path d="M309.7215,376.78 L302.0027,376.78 L302.0027,364.3894 L309.7215,364.3894 L309.7215,366.5456 L304.4558,366.5456 L304.4558,369.2175 L309.2215,369.2175 L309.2215,371.3738 L304.4558,371.3738 L304.4558,374.6238 L309.7215,374.6238 L309.7215,376.78 Z " fill="#000000"/><text fill="#000000" font-family="sans-serif" font-size="14" lengthAdjust="spacing" textLength="42.0342" x="326.1121" y="375.6267">&#1047;&#1072;&#1082;&#1072;&#1079;</text><line style="stroke:#181818;stroke-width:0.5;" x1="237.47" x2="424.2884" y1="386.78" y2="386.78"/><ellipse cx="247.47" cy="400.4284" fill="#000000" rx="3" ry="3" style="stroke:#000000;stroke-width:1.0;"/><text fill="#000000" font-family="sans-serif" font-size="14" lengthAdjust="spacing" textLength="94.124" x="256.47" y="403.7751">order_id : INT</text><text fill="#000000" font-family="sans-serif" font-size="14" lengthAdjust="spacing" textLength="94.999" x="256.47" y="420.072">client_id : INT</text><text fill="#000000" font-family="sans-serif" font-size="14" lengthAdjust="spacing" textLength="92.2646" x="256.47" y="436.3689">store_id : INT</text><text fill="#000000" font-family="sans-serif" font-size="14" lengthAdjust="spacing" textLength="147.4033" x="256.47" y="452.6657">creation_date : DATE</text><text fill="#000000" font-family="sans-serif" font-size="14" lengthAdjust="spacing" textLength="125.125" x="256.47" y="468.9626">status : VARCHAR</text><text fill="#000000" font-family="sans-serif" font-size="14" lengthAdjust="spacing" textLength="162.8184" x="256.47" y="485.2595">total_weight : DECIMAL</text><line style="stroke:#181818;stroke-width:0.5;" x1="237.47" x2="424.2884" y1="492.5613" y2="492.5613"/></g><!--class ??????--><g id="elem_&#1050;&#1083;&#1080;&#1077;&#1085;&#1090;"><rect codeLine="22" fill="#F1F1F1" height="113.1875" id="&#1050;&#1083;&#1080;&#1077;&#1085;&#1090;" rx="2.5" ry="2.5" style="stroke:#181818;stroke-width:0.5;" width="193.7539" x="644" y="164.6"/><ellipse cx="709.6729" cy="180.6" fill="#ADD1B2" rx="11" ry="11" style="stroke:#181818;stroke-width:1.0;"/><path d="M713.7822,186.6 L706.0635,186.6 L706.0635,174.2094 L713.7822,174.2094 L713.7822,176.3656 L708.5166,176.3656 L708.5166,179.0375 L713.2822,179.0375 L713.2822,181.1937 L708.5166,181.1937 L708.5166,184.4437 L713.7822,184.4437 L713.7822,186.6 Z " fill="#000000"/><text fill="#000000" font-family="sans-serif" font-size="14" lengthAdjust="spacing" textLength="53.9082" x="730.1729" y="185.4467">&#1050;&#1083;&#1080;&#1077;&#1085;&#1090;</text><line style="stroke:#181818;stroke-width:0.5;" x1="645" x2="836.7539" y1="196.6" y2="196.6"/><ellipse cx="655" cy="210.2484" fill="#000000" rx="3" ry="3" style="stroke:#000000;stroke-width:1.0;"/><text fill="#000000" font-family="sans-serif" font-size="14" lengthAdjust="spacing" textLength="94.999" x="664" y="213.5951">client_id : INT</text><text fill="#000000" font-family="sans-serif" font-size="14" lengthAdjust="spacing" textLength="121.8096" x="664" y="229.892">name : VARCHAR</text><text fill="#000000" font-family="sans-serif" font-size="14" lengthAdjust="spacing" textLength="167.7539" x="664" y="246.1889">contact_info : VARCHAR</text><text fill="#000000" font-family="sans-serif" font-size="14" lengthAdjust="spacing" textLength="87.4658" x="664" y="262.4857">card_id : INT</text><line style="stroke:#181818;stroke-width:0.5;" x1="645" x2="836.7539" y1="269.7875" y2="269.7875"/></g><!--class ?????--><g id="elem_&#1050;&#1072;&#1088;&#1090;&#1072;"><rect codeLine="29" fill="#F1F1F1" height="113.1875" id="&#1050;&#1072;&#1088;&#1090;&#1072;" rx="2.5" ry="2.5" style="stroke:#181818;stroke-width:0.5;" width="200.665" x="855.54" y="371.08"/><ellipse cx="929.5527" cy="387.08" fill="#ADD1B2" rx="11" ry="11" style="stroke:#181818;stroke-width:1.0;"/><path d="M933.6621,393.08 L925.9433,393.08 L925.9433,380.6894 L933.6621,380.6894 L933.6621,382.8456 L928.3964,382.8456 L928.3964,385.5175 L933.1621,385.5175 L933.1621,387.6737 L928.3964,387.6737 L928.3964,390.9237 L933.6621,390.9237 L933.6621,393.08 Z " fill="#000000"/><text fill="#000000" font-family="sans-serif" font-size="14" lengthAdjust="spacing" textLength="44.1396" x="950.0527" y="391.9267">&#1050;&#1072;&#1088;&#1090;&#1072;</text><line style="stroke:#181818;stroke-width:0.5;" x1="856.54" x2="1055.205" y1="403.08" y2="403.08"/><ellipse cx="866.54" cy="416.7284" fill="#000000" rx="3" ry="3" style="stroke:#000000;stroke-width:1.0;"/><text fill="#000000" font-family="sans-serif" font-size="14" lengthAdjust="spacing" textLength="87.4658" x="875.54" y="420.0751">card_id : INT</text><text fill="#000000" font-family="sans-serif" font-size="14" lengthAdjust="spacing" textLength="174.665" x="875.54" y="436.372">card_number : VARCHAR</text><text fill="#000000" font-family="sans-serif" font-size="14" lengthAdjust="spacing" textLength="133.6563" x="875.54" y="452.6689">expiry_date : DATE</text><text fill="#000000" font-family="sans-serif" font-size="14" lengthAdjust="spacing" textLength="94.999" x="875.54" y="468.9657">client_id : INT</text><line style="stroke:#181818;stroke-width:0.5;" x1="856.54" x2="1055.205" y1="476.2675" y2="476.2675"/></g><!--class ???????--><g id="elem_&#1055;&#1088;&#1086;&#1076;&#1091;&#1082;&#1090;"><rect codeLine="36" fill="#F1F1F1" height="145.7813" id="&#1055;&#1088;&#1086;&#1076;&#1091;&#1082;&#1090;" rx="2.5" ry="2.5" style="stroke:#181818;stroke-width:0.5;" width="165.2891" x="460.23" y="354.78"/><ellipse cx="507.3467" cy="370.78" fill="#ADD1B2" rx="11" ry="11" style="stroke:#181818;stroke-width:1.0;"/><path d="M511.4561,376.78 L503.7373,376.78 L503.7373,364.3894 L511.4561,364.3894 L511.4561,366.5456 L506.1904,366.5456 L506.1904,369.2175 L510.9561,369.2175 L510.9561,371.3738 L506.1904,371.3738 L506.1904,374.6238 L511.4561,374.6238 L511.4561,376.78 Z " fill="#000000"/><text fill="#000000" font-family="sans-serif" font-size="14" lengthAdjust="spacing" textLength="62.5557" x="527.8467" y="375.6267">&#1055;&#1088;&#1086;&#1076;&#1091;&#1082;&#1090;</text><line style="stroke:#181818;stroke-width:0.5;" x1="461.23" x2="624.5191" y1="386.78" y2="386.78"/><ellipse cx="471.23" cy="400.4284" fill="#000000" rx="3" ry="3" style="stroke:#000000;stroke-width:1.0;"/><text fill="#000000" font-family="sans-serif" font-size="14" lengthAdjust="spacing" textLength="110.7012" x="480.23" y="403.7751">product_id : INT</text><text fill="#000000" font-family="sans-serif" font-size="14" lengthAdjust="spacing" textLength="121.8096" x="480.23" y="420.072">name : VARCHAR</text><text fill="#000000" font-family="sans-serif" font-size="14" lengthAdjust="spacing" textLength="111.4463" x="480.23" y="436.3689">price : DECIMAL</text><text fill="#000000" font-family="sans-serif" font-size="14" lengthAdjust="spacing" textLength="123.8057" x="480.23" y="452.6657">weight : DECIMAL</text><text fill="#000000" font-family="sans-serif" font-size="14" lengthAdjust="spacing" textLength="139.2891" x="480.23" y="468.9626">stock_quantity : INT</text><text fill="#000000" font-family="sans-serif" font-size="14" lengthAdjust="spacing" textLength="92.2646" x="480.23" y="485.2595">store_id : INT</text><line style="stroke:#181818;stroke-width:0.5;" x1="461.23" x2="624.5191" y1="492.5613" y2="492.5613"/></g><!--class ???????--><g id="elem_&#1050;&#1086;&#1088;&#1079;&#1080;&#1085;&#1072;"><rect codeLine="45" fill="#F1F1F1" height="96.8906" id="&#1050;&#1086;&#1088;&#1079;&#1080;&#1085;&#1072;" rx="2.5" ry="2.5" style="stroke:#181818;stroke-width:0.5;" width="159.793" x="660.98" y="379.23"/><ellipse cx="705.793" cy="395.23" fill="#ADD1B2" rx="11" ry="11" style="stroke:#181818;stroke-width:1.0;"/><path d="M709.9024,401.23 L702.1836,401.23 L702.1836,388.8394 L709.9024,388.8394 L709.9024,390.9956 L704.6367,390.9956 L704.6367,393.6675 L709.4024,393.6675 L709.4024,395.8237 L704.6367,395.8237 L704.6367,399.0737 L709.9024,399.0737 L709.9024,401.23 Z " fill="#000000"/><text fill="#000000" font-family="sans-serif" font-size="14" lengthAdjust="spacing" textLength="61.667" x="726.293" y="400.0767">&#1050;&#1086;&#1088;&#1079;&#1080;&#1085;&#1072;</text><line style="stroke:#181818;stroke-width:0.5;" x1="661.98" x2="819.773" y1="411.23" y2="411.23"/><ellipse cx="671.98" cy="424.8784" fill="#000000" rx="3" ry="3" style="stroke:#000000;stroke-width:1.0;"/><text fill="#000000" font-family="sans-serif" font-size="14" lengthAdjust="spacing" textLength="103.5166" x="680.98" y="428.2251">basket_id : INT</text><text fill="#000000" font-family="sans-serif" font-size="14" lengthAdjust="spacing" textLength="94.999" x="680.98" y="444.522">client_id : INT</text><text fill="#000000" font-family="sans-serif" font-size="14" lengthAdjust="spacing" textLength="133.793" x="680.98" y="460.8189">date_added : DATE</text><line style="stroke:#181818;stroke-width:0.5;" x1="661.98" x2="819.773" y1="468.1206" y2="468.1206"/></g><!--class ??????????????--><g id="elem_&#1069;&#1083;&#1077;&#1084;&#1077;&#1085;&#1090;&#1050;&#1086;&#1088;&#1079;&#1080;&#1085;&#1099;"><rect codeLine="51" fill="#F1F1F1" height="113.1875" id="&#1069;&#1083;&#1077;&#1084;&#1077;&#1085;&#1090;&#1050;&#1086;&#1088;&#1079;&#1080;&#1085;&#1099;" rx="2.5" ry="2.5" style="stroke:#181818;stroke-width:0.5;" width="159.9619" x="519.9" y="585.71"/><ellipse cx="534.9" cy="601.71" fill="#ADD1B2" rx="11" ry="11" style="stroke:#181818;stroke-width:1.0;"/><path d="M539.0094,607.71 L531.2906,607.71 L531.2906,595.3194 L539.0094,595.3194 L539.0094,597.4756 L533.7438,597.4756 L533.7438,600.1475 L538.5094,600.1475 L538.5094,602.3037 L533.7438,602.3037 L533.7438,605.5537 L539.0094,605.5537 L539.0094,607.71 Z " fill="#000000"/><text fill="#000000" font-family="sans-serif" font-size="14" lengthAdjust="spacing" textLength="127.9619" x="548.9" y="606.5567">&#1069;&#1083;&#1077;&#1084;&#1077;&#1085;&#1090;&#1050;&#1086;&#1088;&#1079;&#1080;&#1085;&#1099;</text><line style="stroke:#181818;stroke-width:0.5;" x1="520.9" x2="678.8619" y1="617.71" y2="617.71"/><ellipse cx="530.9" cy="631.3584" fill="#000000" rx="3" ry="3" style="stroke:#000000;stroke-width:1.0;"/><text fill="#000000" font-family="sans-serif" font-size="14" lengthAdjust="spacing" textLength="88.1768" x="539.9" y="634.7051">item_id : INT</text><text fill="#000000" font-family="sans-serif" font-size="14" lengthAdjust="spacing" textLength="103.5166" x="539.9" y="651.002">basket_id : INT</text><text fill="#000000" font-family="sans-serif" font-size="14" lengthAdjust="spacing" textLength="110.7012" x="539.9" y="667.2989">product_id : INT</text><text fill="#000000" font-family="sans-serif" font-size="14" lengthAdjust="spacing" textLength="95.1357" x="539.9" y="683.5957">quantity : INT</text><line style="stroke:#181818;stroke-width:0.5;" x1="520.9" x2="678.8619" y1="690.8975" y2="690.8975"/></g><!--class ????????--><g id="elem_&#1044;&#1086;&#1089;&#1090;&#1072;&#1074;&#1082;&#1072;"><rect codeLine="58" fill="#F1F1F1" height="129.4844" id="&#1044;&#1086;&#1089;&#1090;&#1072;&#1074;&#1082;&#1072;" rx="2.5" ry="2.5" style="stroke:#181818;stroke-width:0.5;" width="220.3389" x="11.71" y="577.57"/><ellipse cx="83.0191" cy="593.57" fill="#ADD1B2" rx="11" ry="11" style="stroke:#181818;stroke-width:1.0;"/><path d="M87.1285,599.57 L79.4097,599.57 L79.4097,587.1794 L87.1285,587.1794 L87.1285,589.3356 L81.8628,589.3356 L81.8628,592.0075 L86.6285,592.0075 L86.6285,594.1637 L81.8628,594.1637 L81.8628,597.4137 L87.1285,597.4137 L87.1285,599.57 Z " fill="#000000"/><text fill="#000000" font-family="sans-serif" font-size="14" lengthAdjust="spacing" textLength="69.2207" x="103.5191" y="598.4167">&#1044;&#1086;&#1089;&#1090;&#1072;&#1074;&#1082;&#1072;</text><line style="stroke:#181818;stroke-width:0.5;" x1="12.71" x2="231.0489" y1="609.57" y2="609.57"/><ellipse cx="22.71" cy="623.2184" fill="#000000" rx="3" ry="3" style="stroke:#000000;stroke-width:1.0;"/><text fill="#000000" font-family="sans-serif" font-size="14" lengthAdjust="spacing" textLength="112.7656" x="31.71" y="626.5651">delivery_id : INT</text><text fill="#000000" font-family="sans-serif" font-size="14" lengthAdjust="spacing" textLength="94.124" x="31.71" y="642.862">order_id : INT</text><text fill="#000000" font-family="sans-serif" font-size="14" lengthAdjust="spacing" textLength="105.6973" x="31.71" y="659.1589">courier_id : INT</text><text fill="#000000" font-family="sans-serif" font-size="14" lengthAdjust="spacing" textLength="125.125" x="31.71" y="675.4557">status : VARCHAR</text><text fill="#000000" font-family="sans-serif" font-size="14" lengthAdjust="spacing" textLength="194.3389" x="31.71" y="691.7526">payment_status : BOOLEAN</text><line style="stroke:#181818;stroke-width:0.5;" x1="12.71" x2="231.0489" y1="699.0544" y2="699.0544"/></g><!--class ??????--><g id="elem_&#1050;&#1091;&#1088;&#1100;&#1077;&#1088;"><rect codeLine="66" fill="#F1F1F1" height="113.1875" id="&#1050;&#1091;&#1088;&#1100;&#1077;&#1088;" rx="2.5" ry="2.5" style="stroke:#181818;stroke-width:0.5;" width="193.7539" x="7" y="371.08"/><ellipse cx="73.1958" cy="387.08" fill="#ADD1B2" rx="11" ry="11" style="stroke:#181818;stroke-width:1.0;"/><path d="M77.3052,393.08 L69.5864,393.08 L69.5864,380.6894 L77.3052,380.6894 L77.3052,382.8456 L72.0396,382.8456 L72.0396,385.5175 L76.8052,385.5175 L76.8052,387.6737 L72.0396,387.6737 L72.0396,390.9237 L77.3052,390.9237 L77.3052,393.08 Z " fill="#000000"/><text fill="#000000" font-family="sans-serif" font-size="14" lengthAdjust="spacing" textLength="52.8623" x="93.6958" y="391.9267">&#1050;&#1091;&#1088;&#1100;&#1077;&#1088;</text><line style="stroke:#181818;stroke-width:0.5;" x1="8" x2="199.7539" y1="403.08" y2="403.08"/><ellipse cx="18" cy="416.7284" fill="#000000" rx="3" ry="3" style="stroke:#000000;stroke-width:1.0;"/><text fill="#000000" font-family="sans-serif" font-size="14" lengthAdjust="spacing" textLength="105.6973" x="27" y="420.0751">courier_id : INT</text><text fill="#000000" font-family="sans-serif" font-size="14" lengthAdjust="spacing" textLength="121.8096" x="27" y="436.372">name : VARCHAR</text><text fill="#000000" font-family="sans-serif" font-size="14" lengthAdjust="spacing" textLength="167.7539" x="27" y="452.6689">contact_info : VARCHAR</text><text fill="#000000" font-family="sans-serif" font-size="14" lengthAdjust="spacing" textLength="125.125" x="27" y="468.9657">status : VARCHAR</text><line style="stroke:#181818;stroke-width:0.5;" x1="8" x2="199.7539" y1="476.2675" y2="476.2675"/></g><!--class ?????????--><g id="elem_&#1057;&#1086;&#1086;&#1073;&#1097;&#1077;&#1085;&#1080;&#1077;"><rect codeLine="73" fill="#F1F1F1" height="113.1875" id="&#1057;&#1086;&#1086;&#1073;&#1097;&#1077;&#1085;&#1080;&#1077;" rx="2.5" ry="2.5" style="stroke:#181818;stroke-width:0.5;" width="145.4648" x="284.14" y="585.71"/><ellipse cx="312.3069" cy="601.71" fill="#ADD1B2" rx="11" ry="11" style="stroke:#181818;stroke-width:1.0;"/><path d="M316.4163,607.71 L308.6975,607.71 L308.6975,595.3194 L316.4163,595.3194 L316.4163,597.4756 L311.1506,597.4756 L311.1506,600.1475 L315.9163,600.1475 L315.9163,602.3037 L311.1506,602.3037 L311.1506,605.5537 L316.4163,605.5537 L316.4163,607.71 Z " fill="#000000"/><text fill="#000000" font-family="sans-serif" font-size="14" lengthAdjust="spacing" textLength="84.2051" x="329.2329" y="606.5567">&#1057;&#1086;&#1086;&#1073;&#1097;&#1077;&#1085;&#1080;&#1077;</text><line style="stroke:#181818;stroke-width:0.5;" x1="285.14" x2="428.6048" y1="617.71" y2="617.71"/><ellipse cx="295.14" cy="631.3584" fill="#000000" rx="3" ry="3" style="stroke:#000000;stroke-width:1.0;"/><text fill="#000000" font-family="sans-serif" font-size="14" lengthAdjust="spacing" textLength="119.4648" x="304.14" y="634.7051">message_id : INT</text><text fill="#000000" font-family="sans-serif" font-size="14" lengthAdjust="spacing" textLength="94.124" x="304.14" y="651.002">order_id : INT</text><text fill="#000000" font-family="sans-serif" font-size="14" lengthAdjust="spacing" textLength="113.3809" x="304.14" y="667.2989">type : VARCHAR</text><text fill="#000000" font-family="sans-serif" font-size="14" lengthAdjust="spacing" textLength="102.7578" x="304.14" y="683.5957">content : TEXT</text><line style="stroke:#181818;stroke-width:0.5;" x1="285.14" x2="428.6048" y1="690.8975" y2="690.8975"/></g><!--link ????? to ???????--><g id="link_&#1043;&#1086;&#1088;&#1086;&#1076;_&#1052;&#1072;&#1075;&#1072;&#1079;&#1080;&#1085;"><path codeLine="80" d="M415.88,95.74 C415.88,120.91 415.88,127.71 415.88,154.36 " fill="none" id="&#1043;&#1086;&#1088;&#1086;&#1076;-&#1052;&#1072;&#1075;&#1072;&#1079;&#1080;&#1085;" style="stroke:#181818;stroke-width:1.0;"/><line style="stroke:#181818;stroke-width:1.0;" x1="411.88" x2="419.88" y1="91.74" y2="91.74"/><line style="stroke:#181818;stroke-width:1.0;" x1="411.88" x2="419.88" y1="94.74" y2="94.74"/><line style="stroke:#181818;stroke-width:1.0;" x1="415.88" x2="415.88" y1="95.74" y2="87.74"/><line style="stroke:#181818;stroke-width:1.0;" x1="415.88" x2="421.88" y1="164.36" y2="172.36"/><line style="stroke:#181818;stroke-width:1.0;" x1="415.88" x2="409.88" y1="164.36" y2="172.36"/><line style="stroke:#181818;stroke-width:1.0;" x1="415.88" x2="415.88" y1="164.36" y2="172.36"/><ellipse cx="415.88" cy="158.36" fill="none" rx="4" ry="4" style="stroke:#181818;stroke-width:1.0;"/><text fill="#000000" font-family="sans-serif" font-size="13" lengthAdjust="spacing" textLength="70.002" x="416.88" y="130.6669">&#1057;&#1086;&#1076;&#1077;&#1088;&#1078;&#1080;&#1090;</text></g><!--link ??????? to ???????--><g id="link_&#1052;&#1072;&#1075;&#1072;&#1079;&#1080;&#1085;_&#1055;&#1088;&#1086;&#1076;&#1091;&#1082;&#1090;"><path codeLine="81" d="M449.8708,276.926 C465.4908,302.076 471.2233,311.2991 488.6133,339.2991 " fill="none" id="&#1052;&#1072;&#1075;&#1072;&#1079;&#1080;&#1085;-&#1055;&#1088;&#1086;&#1076;&#1091;&#1082;&#1090;" style="stroke:#181818;stroke-width:1.0;"/><line style="stroke:#181818;stroke-width:1.0;" x1="444.3624" x2="451.1584" y1="275.6384" y2="271.4176"/><line style="stroke:#181818;stroke-width:1.0;" x1="445.9452" x2="452.7412" y1="278.1869" y2="273.9661"/><line style="stroke:#181818;stroke-width:1.0;" x1="449.8708" x2="445.65" y1="276.926" y2="270.13"/><line style="stroke:#181818;stroke-width:1.0;" x1="493.8892" x2="503.207" y1="347.794" y2="351.4244"/><line style="stroke:#181818;stroke-width:1.0;" x1="493.8892" x2="493.013" y1="347.794" y2="357.7556"/><line style="stroke:#181818;stroke-width:1.0;" x1="493.8892" x2="498.11" y1="347.794" y2="354.59"/><ellipse cx="490.7236" cy="342.6971" fill="none" rx="4" ry="4" style="stroke:#181818;stroke-width:1.0;"/><text fill="#000000" font-family="sans-serif" font-size="13" lengthAdjust="spacing" textLength="70.002" x="480.38" y="320.8469">&#1057;&#1086;&#1076;&#1077;&#1088;&#1078;&#1080;&#1090;</text></g><!--link ?????? to ?????--><g id="link_&#1050;&#1083;&#1080;&#1077;&#1085;&#1090;_&#1047;&#1072;&#1082;&#1072;&#1079;"><path codeLine="82" d="M646.0741,282.1939 C617.2041,298.8839 591.37,312.09 559.88,324.78 C510.09,344.86 492.09,333.35 442.88,354.78 C437.16,357.28 447.3922,351.7787 441.6622,354.7387 " fill="none" id="&#1050;&#1083;&#1080;&#1077;&#1085;&#1090;-&#1047;&#1072;&#1082;&#1072;&#1079;" style="stroke:#181818;stroke-width:1.0;"/><line style="stroke:#181818;stroke-width:1.0;" x1="647.5351" x2="651.539" y1="276.729" y2="283.6549"/><line style="stroke:#181818;stroke-width:1.0;" x1="644.9378" x2="648.9418" y1="278.2305" y2="285.1564"/><line style="stroke:#181818;stroke-width:1.0;" x1="646.0741" x2="653" y1="282.1939" y2="278.19"/><line style="stroke:#181818;stroke-width:1.0;" x1="432.7777" x2="428.4238" y1="359.3283" y2="368.3307"/><line style="stroke:#181818;stroke-width:1.0;" x1="432.7777" x2="422.9162" y1="359.3283" y2="357.6693"/><line style="stroke:#181818;stroke-width:1.0;" x1="432.7777" x2="425.67" y1="359.3283" y2="363"/><ellipse cx="438.1084" cy="356.5746" fill="none" rx="4" ry="4" style="stroke:#181818;stroke-width:1.0;"/><text fill="#000000" font-family="sans-serif" font-size="13" lengthAdjust="spacing" textLength="76.3052" x="597.17" y="320.8469">&#1056;&#1072;&#1079;&#1084;&#1077;&#1097;&#1072;&#1077;&#1090;</text></g><!--link ??????? to ?????--><g id="link_&#1052;&#1072;&#1075;&#1072;&#1079;&#1080;&#1085;_&#1047;&#1072;&#1082;&#1072;&#1079;"><path codeLine="83" d="M369.3968,276.4587 C360.9068,288.1787 357.55,294.67 351.88,307.78 C345.59,322.31 344.6532,320.9463 341.5632,336.7063 " fill="none" id="&#1052;&#1072;&#1075;&#1072;&#1079;&#1080;&#1085;-&#1047;&#1072;&#1082;&#1072;&#1079;" style="stroke:#181818;stroke-width:1.0;"/><line style="stroke:#181818;stroke-width:1.0;" x1="368.504" x2="374.9828" y1="270.8728" y2="275.566"/><line style="stroke:#181818;stroke-width:1.0;" x1="366.7441" x2="373.2228" y1="273.3023" y2="277.9955"/><line style="stroke:#181818;stroke-width:1.0;" x1="369.3968" x2="374.09" y1="276.4587" y2="269.98"/><line style="stroke:#181818;stroke-width:1.0;" x1="339.6392" x2="343.9879" y1="346.5195" y2="355.5244"/><line style="stroke:#181818;stroke-width:1.0;" x1="339.6392" x2="332.2121" y1="346.5195" y2="353.2156"/><line style="stroke:#181818;stroke-width:1.0;" x1="339.6392" x2="338.1" y1="346.5195" y2="354.37"/><ellipse cx="340.7936" cy="340.6316" fill="none" rx="4" ry="4" style="stroke:#181818;stroke-width:1.0;"/><text fill="#000000" font-family="sans-serif" font-size="13" lengthAdjust="spacing" textLength="99.4868" x="352.88" y="320.8469">&#1054;&#1073;&#1088;&#1072;&#1073;&#1072;&#1090;&#1099;&#1074;&#1072;&#1077;&#1090;</text></g><!--link ?????? to ?????--><g id="link_&#1050;&#1083;&#1080;&#1077;&#1085;&#1090;_&#1050;&#1072;&#1088;&#1090;&#1072;"><path codeLine="84" d="M805.4265,283.5837 C835.7565,312.4337 853.8279,329.6143 884.1579,358.4643 " fill="none" id="&#1050;&#1083;&#1080;&#1077;&#1085;&#1090;-&#1050;&#1072;&#1088;&#1090;&#1072;" style="stroke:#181818;stroke-width:1.0;"/><line style="stroke:#181818;stroke-width:1.0;" x1="799.7714" x2="805.2851" y1="283.7251" y2="277.9286"/><line style="stroke:#181818;stroke-width:1.0;" x1="801.9451" x2="807.4588" y1="285.7927" y2="279.9962"/><line style="stroke:#181818;stroke-width:1.0;" x1="805.4265" x2="799.63" y1="283.5837" y2="278.07"/><line style="stroke:#181818;stroke-width:1.0;" x1="891.4035" x2="901.3352" y1="365.3563" y2="366.5226"/><line style="stroke:#181818;stroke-width:1.0;" x1="891.4035" x2="893.0648" y1="365.3563" y2="375.2174"/><line style="stroke:#181818;stroke-width:1.0;" x1="891.4035" x2="897.2" y1="365.3563" y2="370.87"/><ellipse cx="887.0561" cy="361.2211" fill="none" rx="4" ry="4" style="stroke:#181818;stroke-width:1.0;"/><text fill="#000000" font-family="sans-serif" font-size="13" lengthAdjust="spacing" textLength="43.1006" x="849.38" y="320.8469">&#1048;&#1084;&#1077;&#1077;&#1090;</text></g><!--link ?????? to ???????--><g id="link_&#1050;&#1083;&#1080;&#1077;&#1085;&#1090;_&#1050;&#1086;&#1088;&#1079;&#1080;&#1085;&#1072;"><path codeLine="85" d="M740.88,286.07 C740.88,317.64 740.88,330.7 740.88,360.85 " fill="none" id="&#1050;&#1083;&#1080;&#1077;&#1085;&#1090;-&#1050;&#1086;&#1088;&#1079;&#1080;&#1085;&#1072;" style="stroke:#181818;stroke-width:1.0;"/><line style="stroke:#181818;stroke-width:1.0;" x1="736.88" x2="744.88" y1="282.07" y2="282.07"/><line style="stroke:#181818;stroke-width:1.0;" x1="736.88" x2="744.88" y1="285.07" y2="285.07"/><line style="stroke:#181818;stroke-width:1.0;" x1="740.88" x2="740.88" y1="286.07" y2="278.07"/><line style="stroke:#181818;stroke-width:1.0;" x1="740.88" x2="746.88" y1="370.85" y2="378.85"/><line style="stroke:#181818;stroke-width:1.0;" x1="740.88" x2="734.88" y1="370.85" y2="378.85"/><line style="stroke:#181818;stroke-width:1.0;" x1="740.88" x2="740.88" y1="370.85" y2="378.85"/><ellipse cx="740.88" cy="364.85" fill="none" rx="4" ry="4" style="stroke:#181818;stroke-width:1.0;"/><text fill="#000000" font-family="sans-serif" font-size="13" lengthAdjust="spacing" textLength="43.1006" x="741.88" y="320.8469">&#1048;&#1084;&#1077;&#1077;&#1090;</text></g><!--link ??????? to ??????????????--><g id="link_&#1050;&#1086;&#1088;&#1079;&#1080;&#1085;&#1072;_&#1069;&#1083;&#1077;&#1084;&#1077;&#1085;&#1090;&#1050;&#1086;&#1088;&#1079;&#1080;&#1085;&#1099;"><path codeLine="86" d="M704.81,483.0581 C683.38,515.3881 669.3337,536.5459 646.8537,570.4659 " fill="none" id="&#1050;&#1086;&#1088;&#1079;&#1080;&#1085;&#1072;-&#1069;&#1083;&#1077;&#1084;&#1077;&#1085;&#1090;&#1050;&#1086;&#1088;&#1079;&#1080;&#1085;&#1099;" style="stroke:#181818;stroke-width:1.0;"/><line style="stroke:#181818;stroke-width:1.0;" x1="703.686" x2="710.3541" y1="477.5141" y2="481.934"/><line style="stroke:#181818;stroke-width:1.0;" x1="702.0285" x2="708.6966" y1="480.0146" y2="484.4346"/><line style="stroke:#181818;stroke-width:1.0;" x1="704.81" x2="709.23" y1="483.0581" y2="476.39"/><line style="stroke:#181818;stroke-width:1.0;" x1="641.3294" x2="641.9114" y1="578.8015" y2="588.7846"/><line style="stroke:#181818;stroke-width:1.0;" x1="641.3294" x2="631.9086" y1="578.8015" y2="582.1554"/><line style="stroke:#181818;stroke-width:1.0;" x1="641.3294" x2="636.91" y1="578.8015" y2="585.47"/><ellipse cx="644.644" cy="573.8002" fill="none" rx="4" ry="4" style="stroke:#181818;stroke-width:1.0;"/><text fill="#000000" font-family="sans-serif" font-size="13" lengthAdjust="spacing" textLength="70.002" x="671.38" y="543.6369">&#1057;&#1086;&#1076;&#1077;&#1088;&#1078;&#1080;&#1090;</text></g><!--link ??????? to ??????????????--><g id="link_&#1055;&#1088;&#1086;&#1076;&#1091;&#1082;&#1090;_&#1069;&#1083;&#1077;&#1084;&#1077;&#1085;&#1090;&#1050;&#1086;&#1088;&#1079;&#1080;&#1085;&#1099;"><path codeLine="87" d="M564.3212,508.6872 C571.7112,536.2572 573.292,542.1231 580.212,567.9531 " fill="none" id="&#1055;&#1088;&#1086;&#1076;&#1091;&#1082;&#1090;-&#1069;&#1083;&#1077;&#1084;&#1077;&#1085;&#1090;&#1050;&#1086;&#1088;&#1079;&#1080;&#1085;&#1099;" style="stroke:#181818;stroke-width:1.0;"/><line style="stroke:#181818;stroke-width:1.0;" x1="559.422" x2="567.1492" y1="505.8592" y2="503.788"/><line style="stroke:#181818;stroke-width:1.0;" x1="560.1987" x2="567.9259" y1="508.7569" y2="506.6857"/><line style="stroke:#181818;stroke-width:1.0;" x1="564.3212" x2="562.25" y1="508.6872" y2="500.96"/><line style="stroke:#181818;stroke-width:1.0;" x1="582.7998" x2="590.6656" y1="577.6125" y2="583.7873"/><line style="stroke:#181818;stroke-width:1.0;" x1="582.7998" x2="579.0744" y1="577.6125" y2="586.8927"/><line style="stroke:#181818;stroke-width:1.0;" x1="582.7998" x2="584.87" y1="577.6125" y2="585.34"/><ellipse cx="581.2471" cy="571.8169" fill="none" rx="4" ry="4" style="stroke:#181818;stroke-width:1.0;"/><text fill="#000000" font-family="sans-serif" font-size="13" lengthAdjust="spacing" textLength="70.002" x="574.09" y="543.6369">&#1057;&#1086;&#1076;&#1077;&#1088;&#1078;&#1080;&#1090;</text></g><!--link ????? to ????????--><g id="link_&#1047;&#1072;&#1082;&#1072;&#1079;_&#1044;&#1086;&#1089;&#1090;&#1072;&#1074;&#1082;&#1072;"><path codeLine="88" d="M254.2217,506.665 C229.8417,531.465 220.9782,540.4833 197.2982,564.5733 " fill="none" id="&#1047;&#1072;&#1082;&#1072;&#1079;-&#1044;&#1086;&#1089;&#1090;&#1072;&#1074;&#1082;&#1072;" style="stroke:#181818;stroke-width:1.0;"/><line style="stroke:#181818;stroke-width:1.0;" x1="254.1734" x2="259.8783" y1="501.0083" y2="506.6166"/><line style="stroke:#181818;stroke-width:1.0;" x1="252.0702" x2="257.7752" y1="503.1477" y2="508.756"/><line style="stroke:#181818;stroke-width:1.0;" x1="254.2217" x2="259.83" y1="506.665" y2="500.96"/><line style="stroke:#181818;stroke-width:1.0;" x1="190.2881" x2="188.9589" y1="571.7048" y2="581.6161"/><line style="stroke:#181818;stroke-width:1.0;" x1="190.2881" x2="180.4011" y1="571.7048" y2="573.2039"/><line style="stroke:#181818;stroke-width:1.0;" x1="190.2881" x2="184.68" y1="571.7048" y2="577.41"/><ellipse cx="194.4942" cy="567.4259" fill="none" rx="4" ry="4" style="stroke:#181818;stroke-width:1.0;"/><text fill="#000000" font-family="sans-serif" font-size="13" lengthAdjust="spacing" textLength="70.002" x="227.38" y="543.6369">&#1057;&#1086;&#1076;&#1077;&#1088;&#1078;&#1080;&#1090;</text></g><!--link ?????? to ????????--><g id="link_&#1050;&#1091;&#1088;&#1100;&#1077;&#1088;_&#1044;&#1086;&#1089;&#1090;&#1072;&#1074;&#1082;&#1072;"><path codeLine="89" d="M99.0365,492.7439 C98.2565,512.6339 98.62,527.15 100.88,547.57 C101.94,557.18 100.1321,549.5872 102.0621,559.4172 " fill="none" id="&#1050;&#1091;&#1088;&#1100;&#1077;&#1088;-&#1044;&#1086;&#1089;&#1090;&#1072;&#1074;&#1082;&#1072;" style="stroke:#181818;stroke-width:1.0;"/><line style="stroke:#181818;stroke-width:1.0;" x1="95.1963" x2="103.1902" y1="488.5902" y2="488.9037"/><line style="stroke:#181818;stroke-width:1.0;" x1="95.0788" x2="103.0726" y1="491.5879" y2="491.9014"/><line style="stroke:#181818;stroke-width:1.0;" x1="99.0365" x2="99.35" y1="492.7439" y2="484.75"/><line style="stroke:#181818;stroke-width:1.0;" x1="103.9887" x2="111.4176" y1="569.2299" y2="575.924"/><line style="stroke:#181818;stroke-width:1.0;" x1="103.9887" x2="99.6424" y1="569.2299" y2="578.236"/><line style="stroke:#181818;stroke-width:1.0;" x1="103.9887" x2="105.53" y1="569.2299" y2="577.08"/><ellipse cx="102.8328" cy="563.3423" fill="none" rx="4" ry="4" style="stroke:#181818;stroke-width:1.0;"/><text fill="#000000" font-family="sans-serif" font-size="13" lengthAdjust="spacing" textLength="99.3979" x="101.88" y="543.6369">&#1054;&#1089;&#1091;&#1097;&#1077;&#1089;&#1090;&#1074;&#1083;&#1103;&#1077;&#1090;</text></g><!--link ????? to ?????????--><g id="link_&#1047;&#1072;&#1082;&#1072;&#1079;_&#1057;&#1086;&#1086;&#1073;&#1097;&#1077;&#1085;&#1080;&#1077;"><path codeLine="90" d="M340.6907,508.9009 C344.0607,536.4709 344.701,541.6424 347.851,567.4724 " fill="none" id="&#1047;&#1072;&#1082;&#1072;&#1079;-&#1057;&#1086;&#1086;&#1073;&#1097;&#1077;&#1085;&#1080;&#1077;" style="stroke:#181818;stroke-width:1.0;"/><line style="stroke:#181818;stroke-width:1.0;" x1="336.2349" x2="344.1758" y1="505.4158" y2="504.4451"/><line style="stroke:#181818;stroke-width:1.0;" x1="336.5989" x2="344.5398" y1="508.3936" y2="507.423"/><line style="stroke:#181818;stroke-width:1.0;" x1="340.6907" x2="339.72" y1="508.9009" y2="500.96"/><line style="stroke:#181818;stroke-width:1.0;" x1="349.0616" x2="355.9859" y1="577.3988" y2="584.6137"/><line style="stroke:#181818;stroke-width:1.0;" x1="349.0616" x2="344.0741" y1="577.3988" y2="586.0663"/><line style="stroke:#181818;stroke-width:1.0;" x1="349.0616" x2="350.03" y1="577.3988" y2="585.34"/><ellipse cx="348.3352" cy="571.443" fill="none" rx="4" ry="4" style="stroke:#181818;stroke-width:1.0;"/><text fill="#000000" font-family="sans-serif" font-size="13" lengthAdjust="spacing" textLength="81.8848" x="345.66" y="543.6369">&#1054;&#1090;&#1087;&#1088;&#1072;&#1074;&#1083;&#1103;&#1077;&#1090;</text></g><!--SRC=[dLJTQjH05BxFKmoz5Fe2lOjrmK9jeIpYNPWcOmtT_3YPg4ihhDahgU25WbAarGSGjhMhfRNhAvnv8yzaazsPJ3Q85xkGcVDzt_dvph1OX698u0FCv0XcS4ME74Bk4HzFlJ0W6sHhfuydCOqOVZnszpOVkdlEQyTX5V8BJE07_dx1DTnLw4mad7N0IODVe_k4L3UAhg9AUC2uJkKFGepLJomrdpCgmYJs0YgKx0EttolZgCWp8msH23hmNhBmu9bGWRtDhKVkjfxFATnYOLEuaqNT6Yi1kxea5jJ7cFXfObvG7hIMVGeJEP85J6eH8x02ndcqpxX1o5wb8Hys2crcgEcSpwSint2pA2ZbIP3xtHMbFFIPrY52hAQLW_0FlUSvdOkjc8zHjN9TwPn5vViqEsIYU-AgN8y60GlgeZNIxpYnAVoUpqoNa2ULH2XOfDFPaYqjQPIb2Nv4YJTgTd2fh5k916mGlc3Ss2BRp4dEG_EenQKf7KQg0ukh-xkxsprtnsYb7AE1ti5KZceBsTp_RbGh2qtg6pfe1XVohMgnMevAC69PHWzOPy5YcDeP836UzNjFohPgRz7nyVfwSjHyOpR8Mfd3bIeMViArBDQSHaoDDFtUZjHNlCOjdo65-LhoegMmvWd-hzOpSMVOfH5-NU1s5_84_L6ZspINRu32VYujt1MjxuwDq6zhJDTgjFV6xD__yopxKdCqjsR5R3HRTo7Fy6Ii75dUNCAjV5zrmbQs_JjdAE1FEIqD_HS0]--></g></svg>